<svg width="121" height="48" viewBox="0 0 121 48" fill="none" xmlns="http://www.w3.org/2000/svg">
<path d="M28 8.07941L26 5.07941H30L32 8.07941L30 11.0794H26L28 8.07941Z" fill="black"/>
<path d="M36 8.07941L34 5.07941H38L40 8.07941L38 11.0794H34L36 8.07941Z" fill="black"/>
<path d="M44 8.07941L42 5.07941H46L48 8.07941L46 11.0794H42L44 8.07941Z" fill="black"/>
<path d="M52 8.07941L50 5.07941H54L56 8.07941L54 11.0794H50L52 8.07941Z" fill="black"/>
<path d="M60 8.07941L58 5.07941H62L64 8.07941L62 11.0794H58L60 8.07941Z" fill="black"/>
<path d="M0.480769 5.07941L0 42.0794H10.0962V30.0794L15 42.0794H25V22.0794V9.07941V5.07941H20H15V24.0794L10.0962 5.07941H0.480769Z" fill="black"/>
<path d="M38 12.0794H26V42.0794H38V35.0794H32V29.5794H36V24.5794H32V19.0794H38V12.0794Z" fill="black"/>
<path d="M45 42.0794L49.5 32.0794L54 42.0794H60V35.0794L54.5 27.0794L60 19.0794V12.0794H54L49.5 22.0794L45 12.0794H39V19.0794L44.5 27.0794L39 35.0794V42.0794H45Z" fill="black"/>
<path d="M75 42.0794V35.0794H71V19.0794H77V12.0794H71.2857V5.07941H65V12.0794H61V19.0794H65V31.5794V42.0794H75Z" fill="black"/>
<path d="M73.0264 0.580383L110.891 2.58038L111.203 2.59698L111.325 2.88507L119.961 23.3851L120.043 23.5794L119.961 23.7737L111.325 44.2737L111.203 44.5618L110.891 44.5784L73.0264 46.5784L72.2617 46.6194L72.5322 45.9026L80.9648 23.5794L72.5322 1.25616L72.2617 0.539368L73.0264 0.580383Z" stroke="black"/>
<path d="M114.158 5.07941C114.2 5.07969 118.5 5.13769 118.5 17.015C118.5 25.7718 114.5 27.5794 114.5 27.5794L116.579 34.9183C116.581 34.9244 116.651 35.1304 119 42.0794H110.526L107 28.0794H104.5L104.474 42.0794H96V5.07941H114.158ZM104.5 20.5794H108C109.5 20.5794 109.5 19.402 109.5 17.015C109.5 14.6279 110 12.0794 108.5 12.0794H104.5V20.5794Z" fill="black"/>
<path d="M114.158 5.07941C114.2 5.07969 118.5 5.13769 118.5 17.015C118.5 25.7718 114.5 27.5794 114.5 27.5794L116.579 34.9183C116.581 34.9244 116.651 35.1304 119 42.0794H110.526L107 28.0794H104.5L104.474 42.0794H96V5.07941H114.158ZM104.5 20.5794H108C109.5 20.5794 109.5 19.402 109.5 17.015C109.5 14.6279 110 12.0794 108.5 12.0794H104.5V20.5794Z" stroke="#F5F5F5"/>
<path d="M91.4766 5.07941C95.0953 5.07941 96 5.07981 96 16.5609C96 27.9822 91.5235 28.2024 91.4766 28.2044H84.9902V42.0794H77V5.07941H91.4766ZM84.9902 12.4798V20.804H86.9521C88.7617 20.804 89.2139 20.7234 89.2139 16.5609C89.2139 12.3984 88.7617 12.4798 86.9521 12.4798H84.9902Z" fill="black"/>
<path d="M91.4766 5.07941C95.0953 5.07941 96 5.07981 96 16.5609C96 27.9822 91.5235 28.2024 91.4766 28.2044H84.9902V42.0794H77V5.07941H91.4766ZM84.9902 12.4798V20.804H86.9521C88.7617 20.804 89.2139 20.7234 89.2139 16.5609C89.2139 12.3984 88.7617 12.4798 86.9521 12.4798H84.9902Z" stroke="#F5F5F5"/>
</svg>
